<svg width="14" height="14" viewBox="0 0 14 14" fill="none" xmlns="http://www.w3.org/2000/svg">
<path d="M0.26 14V8.56H2.62C2.16667 8.09333 1.86 7.66 1.7 7.26L11.3 12.86C10.8733 13.2867 10.4067 13.5867 9.9 13.76C9.39333 13.92 8.69333 14 7.8 14H0.26ZM11.88 12.4L1.24 6.2C1.16 5.96 1.10667 5.72 1.08 5.48L12.2 11.98C12.1467 12.0867 12.04 12.2267 11.88 12.4ZM1.06 4.66V4.56C1.06 4.46667 1.08667 4.30667 1.14 4.08L12.76 10.88C12.7067 11.0133 12.6267 11.1667 12.52 11.34L1.06 4.66ZM12.92 10.16L1.34 3.4C1.39333 3.25333 1.47333 3.09333 1.58 2.92L12.98 9.56V9.68C12.98 9.84 12.96 10 12.92 10.16ZM12.96 8.74L1.98 2.34C2.04667 2.26 2.16667 2.12667 2.34 1.94L12.76 8.02C12.8533 8.28667 12.92 8.52667 12.96 8.74ZM13.86 0.659999V5.9H11.12C11.64 6.22 11.9933 6.54 12.18 6.86L2.9 1.46C3.52667 0.926666 4.54667 0.659999 5.96 0.659999H13.86Z" fill="white"/>
</svg>
